/* XPM */
static char * wow_quit_xpm[] = {
"24 24 144 2",
"  	c None",
". 	c #000000",
"+ 	c #262626",
"@ 	c #515151",
"# 	c #555454",
"$ 	c #505050",
"% 	c #4E4E4E",
"& 	c #484747",
"* 	c #444444",
"= 	c #404040",
"- 	c #383838",
"; 	c #333333",
"> 	c #0B0B0B",
", 	c #E2E1E1",
"' 	c #DDDCDC",
") 	c #CBCBCB",
"! 	c #B4B3B3",
"~ 	c #999898",
"{ 	c #878686",
"] 	c #7F7F7F",
"^ 	c #717171",
"/ 	c #696868",
"( 	c #1B1B1B",
"_ 	c #D7D7D7",
": 	c #D2D1D1",
"< 	c #CDCCCC",
"[ 	c #C0BFBF",
"} 	c #A6A6A6",
"| 	c #868686",
"1 	c #6B6A6A",
"2 	c #464646",
"3 	c #242424",
"4 	c #232323",
"5 	c #C8C8C8",
"6 	c #C8C7C7",
"7 	c #C2C2C2",
"8 	c #BDBDBD",
"9 	c #B7B6B6",
"0 	c #1D1D1D",
"a 	c #2E2E2E",
"b 	c #080808",
"c 	c #3B1614",
"d 	c #141414",
"e 	c #B8B7B7",
"f 	c #1E1E1E",
"g 	c #2C2C2C",
"h 	c #0C0C0C",
"i 	c #E8372E",
"j 	c #2D0503",
"k 	c #B2B2B2",
"l 	c #0D0D0D",
"m 	c #F9392F",
"n 	c #E4170C",
"o 	c #AEADAD",
"p 	c #7B7B7B",
"q 	c #7C7B7B",
"r 	c #351312",
"s 	c #5B1F1B",
"t 	c #622825",
"u 	c #F8190D",
"v 	c #131313",
"w 	c #A9A9A9",
"x 	c #636363",
"y 	c #676767",
"z 	c #A6352F",
"A 	c #F82318",
"B 	c #F81C10",
"C 	c #121212",
"D 	c #525252",
"E 	c #838282",
"F 	c #A4302A",
"G 	c #E6170C",
"H 	c #290402",
"I 	c #CE130D",
"J 	c #C3110D",
"K 	c #C4110D",
"L 	c #E2160D",
"M 	c #350503",
"N 	c #2D2D2D",
"O 	c #202120",
"P 	c #050605",
"Q 	c #030303",
"R 	c #E3160D",
"S 	c #DE150D",
"T 	c #D4140D",
"U 	c #CD130D",
"V 	c #E3160C",
"W 	c #3E0704",
"X 	c #282928",
"Y 	c #181B17",
"Z 	c #0D0F0C",
"` 	c #451310",
" .	c #630A05",
"..	c #720C06",
"+.	c #ED170D",
"@.	c #E7160D",
"#.	c #EB170C",
"$.	c #2C302B",
"%.	c #232C20",
"&.	c #121711",
"*.	c #0F0F0E",
"=.	c #190301",
"-.	c #EF180C",
";.	c #ACABAB",
">.	c #2B332A",
",.	c #2D3F2A",
"'.	c #172015",
").	c #323432",
"!.	c #ED180C",
"~.	c #7B7C7A",
"{.	c #343E32",
"].	c #374F32",
"^.	c #395234",
"/.	c #1C291A",
"(.	c #343734",
"_.	c #170706",
":.	c #151515",
"<.	c #485048",
"[.	c #345032",
"}.	c #3A6138",
"|.	c #3A6238",
"1.	c #1B301A",
"2.	c #FF0000",
"3.	c #1F1F1F",
"4.	c #9D0000",
"5.	c #F10000",
"6.	c #3B713A",
"7.	c #3B7B3C",
"8.	c #3B803C",
"9.	c #183518",
"0.	c #C1C1C1",
"a.	c #367C39",
"b.	c #32863A",
"c.	c #308A3A",
"d.	c #308B3A",
"e.	c #133817",
"f.	c #315835",
"g.	c #2A8835",
"h.	c #278B35",
"i.	c #258E36",
"j.	c #249036",
"k.	c #0E3A16",
"l.	c #188F31",
"m.	c #179232",
"                                                ",
"          . . . . . . . . . . . . . . . . .     ",
"        . + @ # $ % & * = - ; > . . . . . . .   ",
"        . % , ' ) ! ~ { ] ^ / ( . . . . . . .   ",
"        . % , ' _ : < [ } | 1 ( . . . . . . .   ",
"        . 2 3 4 5 : < 6 7 8 9 0 . . . . . . .   ",
"        . a b c d 9 < 6 7 8 e f . . . . . . .   ",
"        . g h i j d k 6 7 8 e f . . . . . . .   ",
"    . . . l h m n j d o 7 p q f . . . . . . .   ",
"  . r s s s t m u n j v w x y f . . . . . . .   ",
"  . z A A A A B u u n j C D E f . . . . . . .   ",
"  . F u u u u u u u u G H + e f . . . . . . .   ",
"  . F I J J J J J J K L M N e O P P P P P Q .   ",
"  . F R S S S T U I V W C } e X Y Y Y Y Y Z .   ",
"  . `  . . ...+.@.#.W v w 8 e $.%.%.%.%.%.&..   ",
"    . . . *.=.u -.W d o 7 8 ;.>.,.,.,.,.,.'..   ",
"        . ).=.!.W d k 6 7 ~.{.].^.^.^.^.^./..   ",
"        . (._.W :.9 < e <.[.}.}.}.}.}.}.|.1..   ",
"  2.2.  . 2.3.2.2.: 4.5.2.2.6.6.2.2.7.8.2.9.2.2.",
"    2.  2.2., 2.0.2.2.a.a.2.2.b.c.2.d.2.2.e.2.  ",
"    2.  2.2., 2.f.2.g.h.i.j.2.j.j.2.j.2.2.k.2.  ",
"    2.  2.2.2.2.l.2.m.m.m.m.2.m.m.2.m.2.2.2.2.  ",
"      2.2.. 2.. . 2.2.. . 2.2.. . . 2.2.. 2.    ",
"      2.    2.      2.2.2.2.        2.    2.    "};
