/* XPM */
static char * wow_prev_xpm[] = {
"24 24 12 1",
" 	c None",
".	c #020202",
"+	c #B2C6AE",
"@	c #E7EDE6",
"#	c #121A12",
"$	c #263222",
"%	c #497241",
"&	c #78A16E",
"*	c #86AD7D",
"=	c #FF0000",
"-	c #F10000",
";	c #A10000",
"                        ",
"                        ",
"                        ",
"                        ",
"                        ",
"            ..        ..",
"          ..+.      ..+.",
"        ..@@+.    ..@@+.",
"      ..@@@@+.  ..@@@@+.",
"    ..@@@@@@+...@@@@@@+.",
"  .#@@@@@@@@+.@@@@@@@@+.",
"..+@@@@@@@@@+$@@@@@@@@+$",
"..%%&&&*****&.&&&*****&.",
"  ..%%&*&***&.%%&*&***&.",
"    ..%%&*&*&...%%&*&*&.",
"      ..%%&&&.  ..%%&&&.",
"        ..%&%.    ..%&%.",
"          ..%.      ..%.",
" ==  = == ==-;  ==  = ==",
"  = == = ==  ==  = == = ",
"  = == = =    =  = == = ",
"  = ==== =    =  = ==== ",
"   == =  ==  ==   == =  ",
"   =  =   ====    =  =  "};
