/* XPM */
static char * wow_break_xpm[] = {
"24 24 194 2",
"  	c None",
". 	c #D51F1F",
"+ 	c #DA2C2C",
"@ 	c #D92C2C",
"# 	c #D82C2C",
"$ 	c #D62C2C",
"% 	c #D42C2C",
"& 	c #D22C2C",
"* 	c #C71F1F",
"= 	c #CC0909",
"- 	c #DC3F3F",
"; 	c #EF9292",
"> 	c #F9B7B7",
", 	c #F8B7B7",
"' 	c #EA9292",
") 	c #CD4040",
"! 	c #B50909",
"~ 	c #CD0B0B",
"{ 	c #DD3E3E",
"] 	c #F29A9A",
"^ 	c #FDD1D1",
"/ 	c #FED6D6",
"( 	c #EE9B9B",
"_ 	c #CC3E3E",
": 	c #B10B0B",
"< 	c #CE0A0A",
"[ 	c #DE3A3A",
"} 	c #F38A8A",
"| 	c #FEBDBD",
"1 	c #FFD0D0",
"2 	c #FFCCCC",
"3 	c #FFBFBF",
"4 	c #FFBEBE",
"5 	c #ED8A8A",
"6 	c #CB3A3A",
"7 	c #AF0A0A",
"8 	c #CE0606",
"9 	c #E03333",
"0 	c #F37777",
"a 	c #FDA2A2",
"b 	c #FEC5C5",
"c 	c #FFEBEB",
"d 	c #FFE3E3",
"e 	c #FFBCBC",
"f 	c #FFA4A4",
"g 	c #ED7575",
"h 	c #CA2E2E",
"i 	c #A90505",
"j 	c #D71212",
"k 	c #F35555",
"l 	c #FE8181",
"m 	c #FE9898",
"n 	c #FFFAFA",
"o 	c #FFDEDE",
"p 	c #FFAAAA",
"q 	c #FFDDDD",
"r 	c #FEF8F8",
"s 	c #FECACA",
"t 	c #FD8A8A",
"u 	c #FA6464",
"v 	c #E83131",
"w 	c #B90909",
"x 	c #D80E0E",
"y 	c #F84C4C",
"z 	c #FE6565",
"A 	c #FF6A6A",
"B 	c #FF8E8E",
"C 	c #FFD1D1",
"D 	c #FFF9F9",
"E 	c #FFE5E5",
"F 	c #FEF6F6",
"G 	c #FBBEBE",
"H 	c #F75D5D",
"I 	c #F41E1E",
"J 	c #F30D0D",
"K 	c #EB0606",
"L 	c #BB0000",
"M 	c #D60A0A",
"N 	c #F83535",
"O 	c #FE4747",
"P 	c #FF4949",
"Q 	c #FF4C4C",
"R 	c #FF7474",
"S 	c #FFC4C4",
"T 	c #FFF7F7",
"U 	c #FFFDFD",
"V 	c #FEF5F5",
"W 	c #FAB3B3",
"X 	c #F54343",
"Y 	c #F20808",
"Z 	c #F20101",
"` 	c #F20000",
" .	c #EB0000",
"..	c #BA0000",
"+.	c #D50505",
"@.	c #F71E1E",
"#.	c #FE2929",
"$.	c #FF2A2A",
"%.	c #FF3737",
"&.	c #FF9797",
"*.	c #FFEFEF",
"=.	c #FFFFFF",
"-.	c #FDECEC",
";.	c #F88282",
">.	c #F20F0F",
",.	c #B90000",
"'.	c #D30101",
").	c #F70909",
"!.	c #FE0C0C",
"~.	c #FE0D0D",
"{.	c #FE1A1A",
"].	c #FF6565",
"^.	c #FFCFCF",
"/.	c #FEFAFA",
"(.	c #FBCACA",
"_.	c #F65858",
":.	c #F40D0D",
"<.	c #F40000",
"[.	c #ED0000",
"}.	c #B80000",
"|.	c #D20000",
"1.	c #F70000",
"2.	c #FC0000",
"3.	c #FC0B0B",
"4.	c #FD6060",
"5.	c #FFFBFB",
"6.	c #FEEEEE",
"7.	c #FEB4B4",
"8.	c #FCD0D0",
"9.	c #FA5F5F",
"0.	c #F90A0A",
"a.	c #F90000",
"b.	c #F10000",
"c.	c #B60000",
"d.	c #CD0000",
"e.	c #F00101",
"f.	c #FD0303",
"g.	c #FD3636",
"h.	c #FEB0B0",
"i.	c #FFF8F8",
"j.	c #FFEDED",
"k.	c #FE9E9E",
"l.	c #FE3333",
"m.	c #EA0101",
"n.	c #B00000",
"o.	c #BC0000",
"p.	c #D40404",
"q.	c #F00E0E",
"r.	c #FE1D1D",
"s.	c #FF6868",
"t.	c #FF9B9B",
"u.	c #FF3F3F",
"v.	c #FE1414",
"w.	c #FF9A9A",
"x.	c #EA0E0E",
"y.	c #C00404",
"z.	c #970000",
"A.	c #B80101",
"B.	c #CF0C0C",
"C.	c #EE1E1E",
"D.	c #FE3030",
"E.	c #FF4F4F",
"F.	c #FF4141",
"G.	c #FF2828",
"H.	c #FF2727",
"I.	c #E91E1E",
"J.	c #BD0D0D",
"K.	c #990101",
"L.	c #B10303",
"M.	c #CB1414",
"N.	c #ED2D2D",
"O.	c #FE3A3A",
"P.	c #FF3B3B",
"Q.	c #FD3A3A",
"R.	c #E92D2D",
"S.	c #BB1414",
"T.	c #960303",
"U.	c #AD0505",
"V.	c #C61919",
"W.	c #E83939",
"X.	c #F84848",
"Y.	c #F74848",
"Z.	c #E43939",
"`.	c #B71A1A",
" +	c #940505",
".+	c #B71717",
"++	c #C22323",
"@+	c #C22525",
"#+	c #C12525",
"$+	c #C02525",
"%+	c #BE2525",
"&+	c #BB2323",
"*+	c #AA1717",
"=+	c #FF0000",
"                . + @ # $ % & *                 ",
"            = - ; > , , , , , ' ) !             ",
"          ~ { ] ^ / / / / / / ^ ( _ :           ",
"        < [ } | 1 2 3 4 4 3 2 1 | 5 6 7         ",
"      8 9 0 a b c d e f f e d c b a g h i       ",
"      j k l m 1 n n o p p q n r s t u v w       ",
"      x y z A B C D n E E n F G H I J K L       ",
"      M N O P Q R S T U U V W X Y Z `  ...      ",
"      +.@.#.$.$.%.&.*.=.=.-.;.>.` ` `  .,.      ",
"      '.).!.~.{.].^.n r r /.(._.:.<.<.[.}.      ",
"      |.1.2.3.4.C 5.6.7.7.6./.8.9.0.a.b.c.      ",
"      d.e.f.g.h.i.j.k.l.l.k.j.r h.g.f.m.n.      ",
"      o.p.q.r.s.3 t.u.v.v.u.w.4 s.r.x.y.z.      ",
"        A.B.C.D.E.F.G.H.H.G.F.E.D.I.J.K.        ",
"          L.M.N.O.P.P.P.P.P.P.Q.R.S.T.          ",
"            U.V.W.X.X.X.X.X.Y.Z.`. +            ",
"                .+++@+#+$+%+&+*+                ",
"                                                ",
"  =+=+    =+  =+=+  =+=+=+=+    =+=+    =+  =+=+",
"    =+  =+=+  =+  =+=+    =+=+    =+  =+=+  =+  ",
"    =+  =+=+  =+  =+        =+    =+  =+=+  =+  ",
"    =+  =+=+=+=+  =+        =+    =+  =+=+=+=+  ",
"      =+=+  =+    =+=+    =+=+      =+=+  =+    ",
"      =+    =+      =+=+=+=+        =+    =+    "};
