/* XPM */
static char * wow_run_xpm[] = {
"24 24 213 2",
"  	c None",
". 	c #1C74CB",
"+ 	c #2E7DCC",
"@ 	c #0F6CC9",
"# 	c #B8D3EE",
"$ 	c #C1DAF2",
"% 	c #679ED4",
"& 	c #1572CD",
"* 	c #88B5E2",
"= 	c #DBEBFC",
"- 	c #93B8DD",
"; 	c #146FCA",
"> 	c #0F6DCB",
", 	c #4788C8",
"' 	c #E7F3FE",
") 	c #EAF5FF",
"! 	c #A5C4E4",
"~ 	c #5181B1",
"{ 	c #6BADED",
"] 	c #D2E3F4",
"^ 	c #EAF4FF",
"/ 	c #BDD5EE",
"( 	c #CCE2F7",
"_ 	c #E2F0FD",
": 	c #DDEEFF",
"< 	c #B5D4F3",
"[ 	c #3F7BB8",
"} 	c #146EC7",
"| 	c #0D6FD0",
"1 	c #96CAFD",
"2 	c #A8C9EA",
"3 	c #E8F3FE",
"4 	c #DCEEFF",
"5 	c #CEE6FF",
"6 	c #BFDFFF",
"7 	c #A6D0F9",
"8 	c #609AD4",
"9 	c #6DA8E3",
"0 	c #70ADEA",
"a 	c #4480BD",
"b 	c #6DA6DF",
"c 	c #AAC7E4",
"d 	c #E4F1FE",
"e 	c #BDD5ED",
"f 	c #93BCE3",
"g 	c #9BC0E7",
"h 	c #C1DAF4",
"i 	c #B2D8FE",
"j 	c #A2D1FF",
"k 	c #93C9FF",
"l 	c #7BBDFF",
"m 	c #74B9FF",
"n 	c #2D75BD",
"o 	c #468CD1",
"p 	c #77ABDF",
"q 	c #8DB4DC",
"r 	c #E4F0FD",
"s 	c #DDECFC",
"t 	c #518FCC",
"u 	c #1D76D0",
"v 	c #2B80D5",
"w 	c #3B8CDF",
"x 	c #4D99E6",
"y 	c #89B6E3",
"z 	c #A2CEFA",
"A 	c #7DBEFF",
"B 	c #72B8FF",
"C 	c #6DAFF3",
"D 	c #4B80B6",
"E 	c #6588AA",
"F 	c #0066CB",
"G 	c #B8D1EC",
"H 	c #90B3D6",
"I 	c #447DB5",
"J 	c #6E8BA7",
"K 	c #5482B1",
"L 	c #4488CD",
"M 	c #5DA4EA",
"N 	c #92BBE3",
"O 	c #7AB9FA",
"P 	c #6CB6FF",
"Q 	c #679DD5",
"R 	c #497EB3",
"S 	c #0668CA",
"T 	c #A7BDE0",
"U 	c #E5F0FD",
"V 	c #5384B5",
"W 	c #4886C3",
"X 	c #6FAFEF",
"Y 	c #9DC1E6",
"Z 	c #67B3FF",
"` 	c #63A8ED",
" .	c #4A7EB1",
"..	c #0A3FC9",
"+.	c #0000CC",
"@.	c #1B28CA",
"#.	c #C4D9EF",
"$.	c #E9F4FF",
"%.	c #DBEDFF",
"&.	c #5D8CBB",
"*.	c #5899D9",
"=.	c #91B8E1",
"-.	c #61AFFF",
";.	c #5CADFF",
">.	c #5B99D8",
",.	c #3276BB",
"'.	c #0B68C6",
").	c #2154C0",
"!.	c #1227C6",
"~.	c #0D40C7",
"{.	c #7FADDA",
"].	c #DAEDFF",
"^.	c #CCE5FF",
"/.	c #82ABD5",
"(.	c #4087CD",
"_.	c #85B1DE",
":.	c #5BADFF",
"<.	c #57AAFF",
"[.	c #52A8FF",
"}.	c #4EA6FF",
"|.	c #407AB5",
"1.	c #196EC3",
"2.	c #4E8ECE",
"3.	c #CAE3FD",
"4.	c #BEDEFF",
"5.	c #A8D2FB",
"6.	c #4E87BE",
"7.	c #3A7EC2",
"8.	c #6EB1F3",
"9.	c #55AAFF",
"0.	c #5AAAFA",
"a.	c #69AEF3",
"b.	c #5DA7F1",
"c.	c #4B7CAD",
"d.	c #4384C4",
"e.	c #BDDBF8",
"f.	c #BDDEFF",
"g.	c #AED7FF",
"h.	c #A0D0FF",
"i.	c #86C0FB",
"j.	c #5290CD",
"k.	c #136CC6",
"l.	c #2974BE",
"m.	c #5EA4E9",
"n.	c #54AAFF",
"o.	c #4FA7FF",
"p.	c #4F85BD",
"q.	c #376B9F",
"r.	c #376CA0",
"s.	c #467CB1",
"t.	c #0066CC",
"u.	c #428AD3",
"v.	c #BEDCFA",
"w.	c #A3CFFB",
"x.	c #92C8FF",
"y.	c #7ABCFF",
"z.	c #68B4FF",
"A.	c #64ABF1",
"B.	c #5DA2E7",
"C.	c #58A0E7",
"D.	c #57ABFF",
"E.	c #52A9FF",
"F.	c #5198DE",
"G.	c #366EA4",
"H.	c #346BA2",
"I.	c #3670A9",
"J.	c #0367C9",
"K.	c #699ED5",
"L.	c #6697C7",
"M.	c #216FBB",
"N.	c #679FD7",
"O.	c #91C0EE",
"P.	c #64B1FF",
"Q.	c #5FAFFF",
"R.	c #5AADFF",
"S.	c #56AAFF",
"T.	c #51A8FF",
"U.	c #4DA6FF",
"V.	c #49A4FF",
"W.	c #489DF0",
"X.	c #487CAF",
"Y.	c #0E6BC7",
"Z.	c #216AB5",
"`.	c #346CA4",
" +	c #0A69C8",
".+	c #4B8FD3",
"++	c #72B4F5",
"@+	c #58ACFF",
"#+	c #5AA7F5",
"$+	c #669DD5",
"%+	c #4689CC",
"&+	c #9EC1E5",
"*+	c #48A3FC",
"=+	c #3E9EFF",
"-+	c #4D82B7",
";+	c #FF0000",
">+	c #3E7AB7",
",+	c #550101",
"'+	c #4599ED",
")+	c #1471CF",
"!+	c #3599FC",
"~+	c #2170BF",
"{+	c #3E7EBF",
"]+	c #5E99D5",
"^+	c #3397FA",
"/+	c #1B78D5",
"(+	c #5683AE",
"_+	c #0467CB",
":+	c #467EB4",
"<+	c #4781BA",
"[+	c #3178C0",
"}+	c #407BB5",
"|+	c #3477BA",
"                                                ",
"                                                ",
"                        .                       ",
"              +       @ # $ %                   ",
"          & * = - ; > , ' ) ! ~                 ",
"          { ] ) ^ / ( _ ) : < [     }           ",
"        | 1 2 3 ) ) ) ) 4 5 6 7 8 9 0 a         ",
"          b c ) ) d e f g h i j k l m b n       ",
"      o p q r ) s t u v w x y z A B C D E       ",
"    F G ) ) ) ) H I   J K L M N O P Q R         ",
"    S T U ) ) 3 V           W X Y Z `  .        ",
"    ..+.@.#.$.%.&.            *.=.-.;.>.,.'.    ",
"    ).!.~.{.].^./.            (._.:.<.[.}.|.    ",
"        1.2.3.4.5.6.          7.8.9.0.a.b.c.    ",
"        d.e.f.g.h.i.j.k.    l.m.n.o.p.q.r.s.    ",
"      t.u.v.g.w.x.y.z.A.B.C.D.E.}.F.G.H.I.      ",
"      J.t.K.L.M.N.O.P.Q.R.S.T.U.V.W.X.          ",
"        Y.Z.`. +t..+++@+#+$+%+&+*+=+-+          ",
"  ;+;+  >+;+,+;+;+'+;+;+;+;+)+!+;+;+~+  ;+  ;+;+",
"    ;+  ;+;+  ;+{+;+;+]+[ ;+;+^+/+;+(+;+;+  ;+  ",
"    ;+  ;+;+  ;+  ;+t._+:+  ;+<+[+;+  ;+;+  ;+  ",
"    ;+  ;+;+;+;+  ;+}+|+    ;+    ;+  ;+;+;+;+  ",
"      ;+;+  ;+    ;+;+    ;+;+      ;+;+  ;+    ",
"      ;+    ;+      ;+;+;+;+        ;+    ;+    "};
