/* XPM */
static char * wow_back_xpm[] = {
"24 24 10 1",
" 	c None",
".	c #020202",
"+	c #B2C6AE",
"@	c #E7EDE6",
"#	c #121A12",
"$	c #263222",
"%	c #497241",
"&	c #78A16E",
"*	c #86AD7D",
"=	c #FF0000",
"                        ",
"                        ",
"                        ",
"                        ",
"                        ",
"                ..      ",
"              ..+.      ",
"            ..@@+.      ",
"          ..@@@@+.      ",
"        ..@@@@@@+.      ",
"      .#@@@@@@@@+.      ",
"    ..+@@@@@@@@@+$      ",
"    ..%%&&&*****&.      ",
"      ..%%&*&***&.      ",
"        ..%%&*&*&.      ",
"          ..%%&&&.      ",
"            ..%&%.      ",
"              ..%.      ",
" ==  = == ====  ==  = ==",
"  = == = ==  ==  = == = ",
"  = == = =    =  = == = ",
"  = ==== =    =  = ==== ",
"   == =  ==  ==   == =  ",
"   =  =   ====    =  =  "};
