/* XPM */
static char * wow_next_xpm[] = {
"24 24 12 1",
" 	c None",
".	c #020202",
"+	c #E9EFE8",
"@	c #1A1A1A",
"#	c #9EBA92",
"$	c #88AE80",
"%	c #779D6D",
"&	c #3C5936",
"*	c #97B78B",
"=	c #FF0000",
"-	c #9D0000",
";	c #F10000",
"                        ",
"                        ",
"                        ",
"                        ",
"                        ",
"..        ..            ",
".+..      .+..          ",
".+++..    .+++..        ",
".+++++..  .+++++..      ",
".+++++++...+++++++..    ",
".+++++++++.+++++++++@.  ",
"@+++++++++@++++++++++#..",
".#$$$$$$$%.#$$$$$$$%%&..",
".#$$$$$%%&.#$$$$$%%&..  ",
".#$$$%%&...#$$$%%&..    ",
".*$%%&..  .*$%%&..      ",
".$%&..    .$%&..        ",
".&..      .&..          ",
".==  = == -;==  ==  = ==",
"  = == = ==  ==  = == = ",
"  = == = =    =  = == = ",
"  = ==== =    =  = ==== ",
"   == =  ==  ==   == =  ",
"   =  =   ====    =  =  "};
